<?xml version="1.0" standalone="no"?>
<!DOCTYPE svg PUBLIC "-//W3C//DTD SVG 20010904//EN"
 "http://www.w3.org/TR/2001/REC-SVG-20010904/DTD/svg10.dtd">
<svg version="1.0" xmlns="http://www.w3.org/2000/svg"
 width="1024.000000pt" height="1024.000000pt" viewBox="0 0 1024.000000 1024.000000"
 preserveAspectRatio="xMidYMid meet">
<metadata>
Created by potrace 1.14, written by Peter Selinger 2001-2017
</metadata>
<g transform="translate(0.000000,1024.000000) scale(0.100000,-0.100000)"
fill="#000000" stroke="none">
<path d="M5007 9824 c-1 -1 -76 -5 -167 -8 -91 -4 -178 -9 -195 -10 -25 -3
-95 -10 -205 -21 -90 -9 -171 -21 -312 -46 -35 -6 -74 -13 -88 -15 -262 -45
-751 -188 -985 -289 -227 -97 -485 -223 -547 -266 -14 -11 -29 -19 -32 -19
-12 0 -223 -134 -336 -213 -344 -241 -632 -511 -897 -841 -41 -50 -89 -113
-108 -141 -114 -166 -142 -208 -186 -282 -38 -62 -56 -83 -72 -84 -12 0 -30
-2 -40 -4 -10 -2 -51 -9 -90 -15 -108 -17 -109 -18 -157 -29 -25 -5 -61 -13
-80 -16 -66 -11 -225 -58 -277 -82 l-53 -24 -1 -67 c0 -37 -2 -169 -5 -293
l-4 -227 25 -6 c30 -8 138 -57 145 -67 3 -3 16 -12 30 -19 14 -7 48 -31 75
-54 l51 -40 -42 -166 c-23 -91 -45 -181 -48 -200 -3 -19 -12 -66 -20 -105 -8
-38 -17 -92 -21 -119 -3 -27 -8 -52 -9 -55 -3 -5 -10 -63 -21 -171 -2 -19 -7
-57 -10 -85 -29 -274 -35 -755 -11 -989 3 -27 8 -80 11 -120 3 -39 8 -82 10
-96 2 -14 6 -45 10 -70 30 -238 108 -610 154 -735 4 -11 27 -81 51 -155 91
-284 244 -614 410 -885 86 -141 264 -390 351 -490 371 -429 749 -739 1234
-1013 46 -25 332 -167 416 -205 276 -125 821 -290 1099 -333 19 -3 51 -9 70
-14 19 -5 60 -12 90 -15 30 -4 57 -8 60 -10 3 -2 32 -6 65 -9 33 -3 69 -8 80
-10 11 -2 56 -7 100 -11 44 -4 94 -8 110 -10 126 -16 519 -22 745 -11 135 6
171 9 275 21 22 3 69 7 105 11 95 9 388 58 526 89 187 42 559 149 639 185 11
5 61 24 110 43 855 324 1605 909 2097 1637 140 207 301 498 377 680 13 30 31
73 41 95 106 238 248 750 285 1025 6 46 18 128 21 145 2 11 7 45 10 75 3 30 7
71 9 90 27 221 27 841 1 1060 -3 19 -7 62 -11 95 -10 95 -15 126 -26 188 -6
33 -12 73 -14 90 -6 55 -43 227 -79 371 -19 77 -33 143 -29 149 12 20 87 83
141 120 52 34 130 75 189 98 l23 8 -6 278 c-2 153 -7 286 -10 295 -9 32 -206
92 -449 138 -66 13 -129 24 -140 25 -11 1 -36 5 -55 8 -19 4 -51 9 -71 11 -54
8 -62 13 -88 59 -40 70 -179 275 -249 366 -203 266 -486 554 -737 751 -38 30
-74 58 -80 63 -70 56 -326 229 -410 277 -351 201 -563 299 -895 416 -134 48
-351 112 -465 139 -38 9 -77 18 -85 20 -61 15 -208 45 -270 55 -41 7 -84 14
-94 16 -11 2 -56 8 -100 14 -45 6 -92 13 -106 15 -22 3 -91 10 -210 21 -90 8
-537 22 -543 18z"/>
</g>
</svg>
