<?xml version="1.0" standalone="no"?>
<!DOCTYPE svg PUBLIC "-//W3C//DTD SVG 20010904//EN"
 "http://www.w3.org/TR/2001/REC-SVG-20010904/DTD/svg10.dtd">
<svg version="1.0" xmlns="http://www.w3.org/2000/svg"
 width="768.000000pt" height="768.000000pt" viewBox="0 0 768.000000 768.000000"
 preserveAspectRatio="xMidYMid meet">
<metadata>
Created by potrace 1.14, written by Peter Selinger 2001-2017
</metadata>
<g transform="translate(0.000000,768.000000) scale(0.100000,-0.100000)"
fill="#000000" stroke="none">
<path d="M777 6823 c-1 -1 -24 -4 -50 -7 -27 -3 -69 -15 -93 -25 -24 -11 -47
-20 -50 -20 -4 0 -14 -11 -24 -25 -9 -15 -19 -24 -22 -20 -4 3 -9 -4 -13 -15
-3 -12 -11 -21 -16 -21 -5 0 -9 -6 -9 -14 0 -8 -7 -17 -16 -20 -8 -3 -13 -10
-9 -16 3 -5 0 -20 -6 -32 -7 -13 -15 -54 -17 -93 -2 -38 -9 -76 -15 -84 -9
-11 -9 -13 -1 -8 9 5 12 -18 12 -83 -1 -63 -4 -88 -12 -83 -8 5 -8 3 0 -8 16
-19 16 -481 0 -491 -8 -5 -7 -8 2 -8 6 0 12 -12 12 -26 0 -14 -4 -23 -9 -19
-5 3 -13 0 -17 -6 -4 -8 -3 -9 5 -5 6 4 14 0 18 -9 3 -10 0 -21 -8 -26 -10 -6
-10 -9 -1 -9 6 0 12 -12 12 -26 0 -17 -4 -23 -12 -18 -10 6 -10 4 0 -7 18 -19
15 -60 -5 -75 -15 -12 -16 -13 -2 -8 14 4 17 -4 18 -56 0 -34 -3 -58 -9 -55
-5 3 -12 1 -15 -5 -4 -6 -1 -9 7 -8 17 4 22 -180 5 -201 -9 -11 -9 -13 0 -8
16 10 15 -262 -1 -282 -8 -10 -8 -13 0 -8 7 4 11 -10 11 -43 1 -49 -4 -57 -23
-42 -5 4 -1 0 8 -10 18 -16 26 -64 9 -53 -5 3 -13 0 -17 -6 -4 -8 -3 -9 5 -5
6 4 14 0 18 -9 3 -10 0 -21 -8 -26 -10 -6 -10 -9 -1 -9 6 0 12 -12 12 -26 0
-17 -4 -23 -12 -18 -10 6 -10 4 0 -7 18 -19 15 -60 -5 -75 -15 -12 -15 -13 -2
-8 15 5 17 -8 17 -110 -1 -82 -4 -114 -12 -109 -8 5 -8 3 0 -8 16 -19 16 -481
0 -491 -8 -5 -7 -8 2 -8 6 0 12 -12 12 -26 0 -14 -4 -23 -9 -19 -5 3 -13 0
-17 -6 -4 -8 -3 -9 5 -5 6 4 14 0 18 -9 3 -10 0 -21 -8 -26 -10 -6 -10 -9 -1
-9 6 0 12 -12 12 -26 0 -17 -4 -23 -12 -18 -10 6 -10 4 0 -7 18 -19 15 -60 -5
-75 -15 -12 -16 -13 -2 -8 14 4 17 -4 18 -56 0 -34 -3 -58 -9 -55 -5 3 -12 1
-15 -5 -4 -6 -1 -9 7 -8 17 4 22 -180 5 -201 -9 -11 -9 -13 0 -8 16 10 15
-262 -1 -282 -8 -10 -8 -13 0 -8 7 4 11 -10 11 -43 1 -49 -4 -57 -23 -42 -5 4
-1 0 8 -10 18 -16 26 -64 9 -53 -5 3 -13 0 -17 -6 -4 -8 -3 -9 5 -5 6 4 14 0
18 -9 3 -10 0 -21 -8 -26 -10 -6 -10 -9 -1 -9 6 0 12 -12 12 -26 0 -17 -4 -23
-12 -18 -10 6 -10 4 0 -7 18 -19 15 -60 -6 -75 -14 -12 -14 -13 -1 -8 15 5 17
-8 17 -110 -1 -82 -4 -114 -12 -109 -8 5 -8 3 0 -8 16 -19 16 -481 0 -491 -8
-5 -7 -8 2 -8 6 0 12 -12 12 -26 0 -14 -4 -23 -9 -19 -5 3 -13 0 -17 -6 -4 -8
-3 -9 5 -5 6 4 14 0 18 -9 3 -10 0 -21 -8 -26 -10 -6 -10 -9 -1 -9 6 0 12 -12
12 -26 0 -17 -4 -23 -12 -18 -10 6 -10 4 0 -7 18 -19 15 -60 -6 -75 -14 -12
-15 -13 -1 -8 14 4 17 -4 18 -56 0 -34 -3 -58 -9 -55 -5 3 -12 1 -15 -5 -4 -6
-1 -9 7 -8 17 4 22 -180 5 -201 -9 -12 -9 -13 0 -7 17 9 15 -76 -1 -86 -8 -5
-7 -8 2 -8 9 0 12 -16 11 -54 -1 -29 1 -58 5 -64 3 -6 -2 -16 -11 -22 -17 -10
-16 -10 2 -8 12 2 19 -2 17 -10 -1 -7 7 -30 18 -52 11 -22 18 -40 16 -40 -3 0
19 -24 47 -53 29 -30 54 -53 57 -53 3 0 28 -8 57 -18 41 -13 51 -21 46 -34 -6
-14 -5 -15 9 -2 9 8 14 19 11 23 -3 5 4 4 16 -2 12 -7 27 -11 34 -9 7 2 14 -1
15 -7 1 -5 -1 -10 -5 -10 -5 0 -17 -6 -28 -13 l-20 -12 20 3 c11 1 25 6 32 10
6 4 14 3 18 -3 9 -14 25 -2 24 18 0 14 -2 14 -8 -2 -4 -11 -10 -15 -14 -10 -3
6 -1 16 4 24 8 13 12 12 24 -4 11 -15 15 -16 15 -5 0 8 9 15 20 15 11 0 20 -4
20 -8 0 -4 5 -8 11 -8 5 0 8 4 5 9 -4 5 3 7 14 4 11 -3 20 -12 20 -20 0 -12
-3 -13 -13 -5 -10 9 -13 4 -14 -21 -1 -26 0 -28 5 -9 4 13 11 23 17 22 5 -1
13 9 17 22 3 13 7 16 7 8 1 -9 4 -11 9 -5 11 15 91 13 85 -2 -3 -7 -10 -10
-16 -6 -6 4 -7 1 -2 -7 6 -10 12 -9 24 6 20 23 42 29 35 9 -4 -8 -10 -15 -15
-15 -5 0 -9 -4 -9 -10 0 -18 16 -11 29 12 9 18 21 23 51 23 26 0 36 -3 29 -11
-5 -6 -6 -14 -2 -17 3 -4 1 -7 -5 -7 -6 0 -12 6 -15 13 -2 7 -3 6 -3 -3 2 -23
68 -20 72 3 1 9 -2 15 -7 11 -5 -3 -7 -10 -4 -15 4 -5 -1 -9 -9 -9 -8 0 -17 4
-20 9 -8 12 39 31 54 21 7 -5 24 -4 37 1 21 8 23 7 13 -11 -6 -11 -15 -20 -21
-20 -6 0 -8 4 -5 8 3 5 -2 9 -11 9 -13 0 -12 -4 5 -17 12 -10 19 -20 16 -22
-2 -3 4 -11 13 -19 16 -13 17 -12 4 4 -11 14 -11 17 0 17 10 0 11 2 2 8 -8 5
-6 13 6 27 20 24 43 31 35 10 -4 -8 -10 -15 -15 -15 -5 0 -9 -4 -9 -10 0 -18
16 -11 29 13 9 18 20 22 55 22 24 0 42 -3 39 -7 -2 -5 1 -8 6 -8 6 0 11 3 11
8 0 4 20 7 44 7 30 0 42 -4 39 -12 -3 -7 -10 -10 -16 -6 -6 4 -7 1 -2 -7 6
-10 12 -9 24 6 17 20 47 32 37 15 -4 -5 2 -14 11 -20 10 -5 17 -13 15 -18 -2
-4 2 -9 10 -11 9 -3 10 -1 1 5 -8 6 -7 13 6 28 20 24 43 31 35 10 -4 -8 -10
-15 -15 -15 -5 0 -9 -4 -9 -10 0 -18 16 -11 29 12 9 19 20 23 55 23 24 0 42
-3 39 -7 -2 -5 1 -8 6 -8 6 0 11 3 11 8 0 4 20 7 44 7 30 0 42 -4 39 -12 -3
-7 -10 -10 -16 -6 -6 4 -7 1 -2 -7 6 -10 12 -9 24 6 19 22 42 29 38 12 -1 -6
7 -13 18 -15 11 -1 14 0 8 3 -25 11 -12 19 31 19 41 0 44 -2 40 -25 l-3 -25
12 25 c11 23 17 25 83 25 71 0 72 0 68 -25 l-3 -25 12 25 c11 23 17 25 79 25
47 0 64 -3 57 -11 -5 -6 -6 -14 -2 -17 3 -4 1 -7 -5 -7 -6 0 -13 7 -15 15 -4
11 -4 10 -3 -2 2 -25 68 -26 72 0 1 9 -2 15 -7 11 -5 -3 -7 -10 -4 -15 4 -5
-1 -9 -9 -9 -8 0 -17 4 -20 9 -8 12 39 31 54 21 7 -5 24 -4 37 1 21 8 23 7 13
-11 -6 -11 -15 -20 -21 -20 -6 0 -8 4 -5 8 3 5 -2 9 -11 9 -13 0 -12 -4 5 -17
12 -10 19 -20 17 -24 -3 -3 -2 -4 2 -1 3 3 12 0 20 -7 11 -8 12 -7 7 6 -3 9
-10 16 -16 16 -5 0 -1 10 9 23 16 22 49 35 37 15 -3 -4 2 -11 10 -14 9 -3 13
-10 10 -15 -3 -5 2 -6 12 -2 15 5 15 7 0 15 -24 13 -19 29 7 24 12 -3 28 -5
35 -5 6 -1 12 -8 12 -18 0 -14 -2 -14 -22 3 -13 10 -18 12 -11 5 6 -7 9 -19 7
-26 -3 -7 -1 -16 5 -20 7 -3 8 0 5 9 -4 12 0 14 20 10 15 -2 26 0 26 6 0 6 -4
8 -10 5 -6 -3 -10 4 -10 17 0 18 2 20 10 8 5 -8 10 -10 10 -5 0 6 20 10 44 10
30 0 42 -4 39 -12 -3 -7 -10 -10 -16 -6 -6 4 -7 1 -2 -7 6 -10 12 -9 24 6 18
20 47 32 36 14 -3 -5 1 -13 9 -16 9 -3 13 -10 10 -15 -9 -15 3 -10 16 7 11 12
11 15 0 12 -7 -2 -14 2 -16 7 -2 6 13 10 35 10 27 0 37 -3 30 -11 -5 -6 -6
-14 -2 -17 3 -4 1 -7 -5 -7 -6 0 -12 6 -15 12 -2 8 -3 7 -3 -2 2 -23 68 -20
72 3 1 9 -2 15 -7 11 -5 -3 -7 -10 -4 -15 4 -5 -1 -9 -9 -9 -8 0 -17 4 -20 9
-7 11 38 31 52 22 7 -4 36 -4 66 -1 53 6 54 6 50 -20 l-3 -25 12 25 c11 24 16
25 99 25 47 0 84 -4 81 -8 -4 -7 28 -3 64 8 7 2 10 -2 6 -11 -3 -9 -13 -13
-27 -9 -20 6 -20 5 -2 -6 16 -10 22 -9 36 7 20 24 41 29 34 9 -4 -8 -10 -15
-15 -15 -5 0 -9 -4 -9 -10 0 -18 16 -11 29 13 9 18 20 22 55 22 24 0 42 -3 39
-7 -2 -5 1 -8 6 -8 6 0 11 3 11 8 0 4 20 7 44 7 30 0 42 -4 39 -12 -3 -7 -10
-10 -16 -6 -6 4 -7 1 -2 -7 6 -10 12 -9 24 6 17 20 47 32 37 15 -4 -5 1 -14
10 -19 9 -5 15 -13 14 -18 -1 -5 4 -10 12 -12 9 -3 10 -1 1 5 -8 6 -7 13 6 28
20 24 43 31 35 10 -4 -8 -10 -15 -15 -15 -5 0 -9 -4 -9 -10 0 -18 16 -11 29
12 9 19 20 23 55 23 24 0 42 -3 39 -7 -2 -5 1 -8 6 -8 6 0 11 3 11 8 0 4 20 7
44 7 30 0 42 -4 39 -12 -3 -7 -10 -10 -16 -6 -6 4 -7 1 -2 -7 6 -10 12 -9 24
6 18 20 47 32 36 14 -3 -5 1 -13 9 -16 9 -3 13 -10 10 -15 -9 -15 3 -10 16 7
11 12 11 15 0 12 -7 -2 -14 2 -16 7 -2 6 13 10 35 10 27 0 37 -3 30 -11 -5 -6
-6 -14 -2 -17 3 -4 1 -7 -5 -7 -6 0 -13 8 -16 18 -4 13 -4 13 -3 -3 3 -27 69
-29 73 -2 1 9 -2 15 -7 11 -5 -3 -7 -10 -4 -15 4 -5 -1 -9 -9 -9 -8 0 -17 4
-20 9 -8 12 39 31 54 21 7 -5 24 -4 37 1 21 8 23 7 13 -11 -6 -11 -15 -20 -21
-20 -6 0 -8 4 -5 8 3 5 -2 9 -11 9 -13 0 -12 -4 5 -17 12 -10 19 -20 17 -24
-3 -3 -2 -4 2 -1 3 3 12 0 20 -7 11 -8 12 -7 7 6 -3 9 -10 16 -16 16 -5 0 -1
10 9 23 16 22 49 35 37 15 -3 -4 2 -11 10 -14 9 -3 13 -10 10 -15 -3 -5 2 -6
12 -2 15 5 15 7 0 15 -24 13 -19 29 7 24 12 -3 28 -5 35 -5 6 -1 12 -8 12 -18
0 -14 -2 -14 -22 3 -13 10 -18 12 -11 5 6 -7 9 -19 7 -26 -3 -7 -1 -16 5 -20
7 -3 8 0 5 9 -4 11 0 14 14 11 15 -3 18 2 15 23 -3 24 -2 24 6 7 7 -15 10 -16
10 -4 1 14 8 15 41 9 22 -4 40 -4 40 0 0 4 12 5 28 3 36 -5 42 -6 80 0 24 3
30 1 22 -8 -5 -6 -7 -15 -3 -18 3 -4 1 -7 -5 -7 -6 0 -12 6 -15 13 -2 7 -3 6
-3 -3 2 -23 68 -20 72 3 1 9 -2 15 -7 11 -5 -3 -7 -10 -4 -15 4 -5 -1 -9 -9
-9 -8 0 -17 4 -20 9 -8 12 39 31 54 21 7 -4 18 -6 24 -4 6 2 28 5 49 7 28 3
35 1 27 -8 -5 -6 -7 -15 -3 -18 3 -4 1 -7 -5 -7 -6 0 -12 6 -15 13 -2 7 -3 6
-3 -3 2 -23 68 -20 72 3 1 9 -2 15 -7 11 -5 -3 -7 -10 -4 -15 4 -5 -1 -9 -9
-9 -8 0 -17 4 -20 9 -8 12 39 31 54 21 7 -5 24 -4 37 1 21 8 23 7 13 -11 -6
-11 -15 -20 -21 -20 -6 0 -8 4 -5 8 3 5 -2 9 -11 9 -13 0 -12 -4 5 -17 12 -10
19 -20 17 -24 -3 -3 -2 -4 2 -1 3 3 12 0 20 -7 11 -8 12 -7 7 6 -3 9 -10 16
-16 16 -5 0 -1 10 9 23 16 22 49 35 37 15 -3 -4 2 -11 10 -14 9 -3 13 -10 10
-15 -3 -5 2 -6 12 -2 15 5 15 7 0 15 -24 13 -19 29 7 24 12 -3 28 -5 35 -5 6
-1 12 -8 12 -18 0 -14 -2 -14 -23 3 -12 10 -17 12 -10 5 6 -7 9 -19 7 -26 -3
-7 -1 -16 5 -20 7 -3 8 0 5 9 -4 12 0 14 20 10 15 -2 26 0 26 6 0 6 -4 8 -10
5 -6 -3 -10 4 -10 17 0 18 2 20 10 8 5 -8 10 -10 10 -5 0 6 20 10 44 10 30 0
42 -4 39 -12 -3 -7 -10 -10 -16 -6 -6 4 -7 1 -2 -7 6 -10 12 -9 24 6 20 23 42
29 35 9 -4 -8 -10 -15 -15 -15 -5 0 -9 -4 -9 -10 0 -18 16 -11 29 12 9 18 21
23 51 23 26 0 36 -3 29 -11 -5 -6 -6 -14 -2 -17 3 -4 1 -7 -5 -7 -6 0 -12 6
-15 13 -2 7 -3 6 -3 -3 2 -23 68 -20 72 3 1 9 -2 15 -7 11 -5 -3 -7 -10 -4
-15 4 -5 -1 -9 -9 -9 -8 0 -17 4 -20 9 -8 12 39 31 54 21 7 -4 18 -6 24 -4 6
2 28 5 49 7 28 3 35 1 27 -8 -5 -6 -7 -15 -3 -18 3 -4 1 -7 -5 -7 -6 0 -13 8
-16 18 -4 13 -4 13 -3 -3 3 -27 69 -29 73 -2 1 9 -2 15 -7 11 -5 -3 -7 -10 -4
-15 4 -5 -1 -9 -9 -9 -8 0 -17 4 -20 9 -8 12 39 31 54 21 7 -5 24 -4 37 1 21
8 23 7 13 -11 -6 -11 -15 -20 -21 -20 -6 0 -8 4 -5 8 3 5 -2 9 -11 9 -13 0
-12 -4 5 -17 12 -10 20 -19 19 -21 -1 -2 0 -3 2 -2 2 2 10 -2 18 -9 11 -8 12
-7 7 6 -3 9 -10 16 -16 16 -5 0 -1 10 9 23 16 22 49 35 37 15 -3 -4 2 -11 10
-14 9 -3 13 -10 10 -15 -3 -5 2 -6 12 -2 15 5 15 7 0 15 -24 13 -19 29 7 24
12 -3 28 -5 35 -5 6 -1 12 -8 12 -18 0 -14 -2 -14 -22 3 -13 10 -18 12 -11 5
6 -7 9 -19 7 -26 -3 -7 -1 -16 5 -20 7 -3 8 0 5 9 -4 11 0 14 14 11 15 -3 18
2 15 23 -3 24 -2 24 6 7 7 -15 10 -16 10 -4 1 14 8 15 41 9 22 -4 40 -4 40 0
0 4 12 5 28 3 36 -5 42 -6 80 0 24 3 30 1 22 -8 -5 -6 -7 -15 -3 -18 3 -4 1
-7 -5 -7 -6 0 -12 6 -15 13 -2 7 -3 6 -3 -3 2 -23 68 -20 72 3 1 9 -2 15 -7
11 -5 -3 -7 -10 -4 -15 4 -5 -1 -9 -9 -9 -8 0 -17 4 -20 9 -8 12 39 31 54 21
7 -4 18 -6 24 -4 6 2 28 5 49 7 28 3 35 1 27 -8 -5 -6 -7 -15 -3 -18 3 -4 1
-7 -5 -7 -6 0 -12 6 -15 13 -2 7 -3 6 -3 -3 2 -23 68 -20 72 3 1 9 -2 15 -7
11 -5 -3 -7 -10 -4 -15 4 -5 -1 -9 -9 -9 -8 0 -17 4 -20 9 -8 12 39 31 54 21
7 -5 24 -4 37 1 21 8 23 7 13 -11 -6 -11 -15 -20 -21 -20 -6 0 -8 4 -5 8 3 5
-2 9 -11 9 -13 0 -12 -4 5 -17 12 -10 20 -19 19 -21 -1 -2 0 -3 2 -2 2 2 10
-2 18 -9 11 -8 12 -7 7 6 -3 9 -10 16 -16 16 -5 0 -1 10 9 23 16 22 49 35 37
15 -3 -4 2 -11 10 -14 9 -3 13 -10 10 -15 -3 -5 2 -6 12 -2 15 5 15 7 0 15
-24 13 -19 29 7 24 12 -3 28 -5 35 -5 6 -1 12 -8 12 -18 0 -14 -2 -14 -22 3
-13 10 -18 12 -11 5 6 -7 9 -19 7 -26 -3 -7 -1 -16 5 -20 7 -3 8 0 5 9 -4 12
0 14 20 10 15 -2 26 0 26 6 0 6 -5 8 -10 5 -6 -3 -10 4 -10 17 0 18 2 20 10 8
5 -8 10 -10 10 -5 0 6 20 10 44 10 30 0 42 -4 39 -12 -3 -7 -10 -10 -16 -6 -6
4 -7 1 -2 -7 6 -10 12 -9 24 6 20 23 42 29 35 9 -4 -8 -10 -15 -15 -15 -5 0
-9 -4 -9 -10 0 -18 16 -11 29 12 9 18 21 23 51 23 26 0 36 -3 29 -11 -5 -6 -6
-14 -2 -17 3 -4 1 -7 -5 -7 -6 0 -13 8 -16 17 -4 14 -4 14 -3 -2 3 -27 69 -29
73 -2 1 9 -2 15 -7 11 -5 -3 -7 -10 -4 -15 4 -5 -1 -9 -9 -9 -8 0 -17 4 -20 9
-8 12 39 31 54 21 7 -5 24 -4 37 1 21 8 23 7 13 -11 -6 -11 -15 -20 -21 -20
-6 0 -8 4 -5 8 3 5 -2 9 -11 9 -13 0 -12 -4 5 -17 12 -10 19 -20 16 -22 -2 -3
4 -11 13 -19 16 -13 17 -12 4 4 -11 14 -11 17 0 17 10 0 11 2 2 8 -8 5 -6 13
6 27 20 24 43 31 35 10 -4 -8 -10 -15 -15 -15 -5 0 -9 -4 -9 -10 0 -18 16 -11
29 12 9 19 20 23 55 23 24 0 42 -3 39 -7 -2 -5 1 -8 6 -8 6 0 11 3 11 8 0 4
20 7 44 7 30 0 42 -4 39 -12 -3 -7 -10 -10 -16 -6 -6 4 -7 1 -2 -7 6 -10 12
-9 24 6 17 20 47 32 37 15 -4 -5 1 -14 10 -19 9 -5 15 -13 14 -18 -1 -5 4 -10
12 -12 9 -3 10 -1 1 5 -8 6 -5 15 9 33 l21 25 -6 -30 c-6 -30 -6 -30 6 -5 10
22 18 25 53 22 31 -2 44 -8 51 -24 8 -19 10 -20 16 -4 4 10 3 15 -3 11 -6 -3
-10 0 -10 7 0 15 46 18 69 4 10 -6 12 -5 7 2 -4 7 -1 12 6 13 12 0 36 4 70 11
7 2 16 8 20 13 5 6 8 5 8 -2 0 -7 4 -13 10 -13 5 0 6 8 3 18 -6 15 -5 15 10 3
15 -12 17 -12 11 4 -6 14 -4 16 7 9 20 -12 38 -14 44 -4 3 5 -4 7 -15 5 -11
-2 -20 0 -20 6 0 5 8 9 18 9 14 0 15 2 2 10 -13 8 -13 10 2 10 10 0 22 9 28
20 6 11 16 18 22 14 6 -4 9 -1 6 7 -3 8 3 25 12 39 17 24 20 31 20 48 0 4 5 0
10 -8 6 -9 10 -10 10 -3 0 6 -5 15 -10 18 -8 5 -7 11 1 21 6 8 8 14 4 14 -4 0
-1 8 6 17 10 11 10 14 2 9 -7 -4 -13 -2 -13 3 0 6 3 11 8 11 4 0 5 21 3 46 -2
31 0 44 7 40 6 -3 14 -2 17 4 4 6 1 9 -7 8 -9 -2 -14 10 -16 36 -2 23 0 36 7
32 5 -4 13 -2 16 4 4 6 1 9 -7 8 -17 -4 -22 180 -5 201 9 11 9 13 0 8 -16 -10
-15 262 1 282 7 10 7 13 0 8 -7 -4 -11 18 -12 64 -1 41 2 68 7 64 5 -3 13 -1
16 5 4 6 1 9 -7 8 -17 -4 -22 180 -5 201 9 11 9 13 0 8 -16 -10 -15 262 1 282
8 11 8 13 0 8 -8 -4 -11 31 -11 118 0 90 3 123 11 118 8 -5 8 -3 0 8 -16 19
-16 481 0 491 8 5 7 8 -1 8 -7 0 -13 12 -13 26 0 14 4 23 9 19 5 -3 13 0 17 6
4 8 3 9 -5 5 -6 -4 -14 0 -18 9 -3 10 0 21 8 26 10 6 10 9 2 9 -7 0 -13 12
-13 26 0 17 4 23 13 18 9 -6 9 -4 0 7 -19 19 -16 60 5 75 14 12 15 13 1 8 -14
-4 -17 4 -18 56 0 34 3 58 9 55 5 -3 12 -1 15 5 4 6 1 9 -7 8 -17 -4 -22 180
-5 201 9 11 9 13 0 8 -16 -10 -15 262 1 282 8 10 8 13 0 8 -7 -4 -11 10 -11
43 -1 49 4 57 23 43 5 -5 1 -1 -8 9 -18 16 -26 64 -9 53 5 -3 13 0 17 6 4 8 3
9 -5 5 -6 -4 -14 0 -18 9 -3 10 0 21 8 26 10 6 10 9 2 9 -7 0 -13 12 -13 26 0
17 4 23 13 18 10 -6 10 -4 0 7 -19 19 -16 60 5 75 14 12 14 13 1 8 -15 -5 -17
8 -17 110 1 82 4 114 12 109 8 -5 8 -3 0 8 -16 20 -16 641 0 632 8 -5 7 -2 0
8 -16 19 -16 481 0 491 8 5 7 8 -1 8 -7 0 -13 12 -13 26 0 14 4 23 9 19 5 -3
13 0 17 6 4 8 3 9 -5 5 -6 -4 -14 0 -18 9 -3 10 0 21 8 26 10 6 10 9 2 9 -7 0
-13 12 -13 26 0 17 4 23 13 18 10 -6 10 -4 0 7 -19 19 -16 60 5 75 14 12 15
13 1 8 -14 -4 -17 4 -18 56 0 34 3 58 9 55 5 -3 12 -1 15 5 4 6 1 9 -7 8 -18
-4 -22 253 -5 264 9 6 9 8 0 8 -7 0 -13 5 -13 11 0 5 6 7 13 3 10 -6 10 -4 0
7 -7 7 -13 35 -13 62 0 53 -16 128 -36 166 -7 14 -10 29 -7 35 3 6 3 8 -2 4
-7 -7 -35 14 -35 27 0 28 -126 93 -195 101 -42 6 -6173 12 -6178 7z m836
-5980 c-3 -7 -9 -10 -14 -7 -14 8 -11 21 5 21 8 0 12 -6 9 -14z m1920 0 c-3
-7 -9 -10 -14 -7 -14 8 -11 21 5 21 8 0 12 -6 9 -14z m3200 0 c-3 -7 -9 -10
-14 -7 -14 8 -11 21 5 21 8 0 12 -6 9 -14z"/>
<path d="M416 6207 c3 -10 9 -15 12 -12 3 3 0 11 -7 18 -10 9 -11 8 -5 -6z"/>
<path d="M7250 6161 c0 -6 4 -13 10 -16 6 -3 7 1 4 9 -7 18 -14 21 -14 7z"/>
<path d="M7250 6041 c0 -6 4 -13 10 -16 6 -3 7 1 4 9 -7 18 -14 21 -14 7z"/>
<path d="M410 5979 c0 -5 5 -7 10 -4 6 3 10 8 10 11 0 2 -4 4 -10 4 -5 0 -10
-5 -10 -11z"/>
<path d="M416 5887 c3 -10 9 -15 12 -12 3 3 0 11 -7 18 -10 9 -11 8 -5 -6z"/>
<path d="M7250 5641 c0 -6 4 -13 10 -16 6 -3 7 1 4 9 -7 18 -14 21 -14 7z"/>
<path d="M7255 5540 c-3 -5 -1 -10 4 -10 6 0 11 5 11 10 0 6 -2 10 -4 10 -3 0
-8 -4 -11 -10z"/>
<path d="M416 5487 c3 -10 9 -15 12 -12 3 3 0 11 -7 18 -10 9 -11 8 -5 -6z"/>
<path d="M416 5367 c3 -10 9 -15 12 -12 3 3 0 11 -7 18 -10 9 -11 8 -5 -6z"/>
<path d="M7250 5321 c0 -6 4 -13 10 -16 6 -3 7 1 4 9 -7 18 -14 21 -14 7z"/>
<path d="M416 5153 c-6 -14 -5 -15 5 -6 7 7 10 15 7 18 -3 3 -9 -2 -12 -12z"/>
<path d="M7266 5158 c3 -5 10 -6 15 -3 13 9 11 12 -6 12 -8 0 -12 -4 -9 -9z"/>
<path d="M416 5087 c3 -10 9 -15 12 -12 3 3 0 11 -7 18 -10 9 -11 8 -5 -6z"/>
<path d="M7250 5001 c0 -6 4 -13 10 -16 6 -3 7 1 4 9 -7 18 -14 21 -14 7z"/>
<path d="M7255 4900 c-3 -5 -1 -10 4 -10 6 0 11 5 11 10 0 6 -2 10 -4 10 -3 0
-8 -4 -11 -10z"/>
<path d="M7250 4681 c0 -6 4 -13 10 -16 6 -3 7 1 4 9 -7 18 -14 21 -14 7z"/>
<path d="M416 4527 c3 -10 9 -15 12 -12 3 3 0 11 -7 18 -10 9 -11 8 -5 -6z"/>
<path d="M7266 4518 c3 -5 10 -6 15 -3 13 9 11 12 -6 12 -8 0 -12 -4 -9 -9z"/>
<path d="M396 4442 c-3 -5 1 -9 9 -9 8 0 12 4 9 9 -3 4 -7 8 -9 8 -2 0 -6 -4
-9 -8z"/>
<path d="M7250 4441 c0 -6 4 -13 10 -16 6 -3 7 1 4 9 -7 18 -14 21 -14 7z"/>
<path d="M416 4287 c3 -10 9 -15 12 -12 3 3 0 11 -7 18 -10 9 -11 8 -5 -6z"/>
<path d="M410 4059 c0 -5 5 -7 10 -4 6 3 10 8 10 11 0 2 -4 4 -10 4 -5 0 -10
-5 -10 -11z"/>
<path d="M416 3967 c3 -10 9 -15 12 -12 3 3 0 11 -7 18 -10 9 -11 8 -5 -6z"/>
<path d="M7250 3881 c0 -6 4 -13 10 -16 6 -3 7 1 4 9 -7 18 -14 21 -14 7z"/>
<path d="M7255 3809 c-4 -6 -5 -12 -2 -15 2 -3 7 2 10 11 7 17 1 20 -8 4z"/>
<path d="M7250 3601 c0 -6 4 -13 10 -16 6 -3 7 1 4 9 -7 18 -14 21 -14 7z"/>
<path d="M416 3567 c3 -10 9 -15 12 -12 3 3 0 11 -7 18 -10 9 -11 8 -5 -6z"/>
<path d="M7250 3481 c0 -6 4 -13 10 -16 6 -3 7 1 4 9 -7 18 -14 21 -14 7z"/>
<path d="M416 3447 c3 -10 9 -15 12 -12 3 3 0 11 -7 18 -10 9 -11 8 -5 -6z"/>
<path d="M416 3233 c-6 -14 -5 -15 5 -6 7 7 10 15 7 18 -3 3 -9 -2 -12 -12z"/>
<path d="M416 3167 c3 -10 9 -15 12 -12 3 3 0 11 -7 18 -10 9 -11 8 -5 -6z"/>
<path d="M7250 3081 c0 -6 4 -13 10 -16 6 -3 7 1 4 9 -7 18 -14 21 -14 7z"/>
<path d="M7255 2980 c-3 -5 -1 -10 4 -10 6 0 11 5 11 10 0 6 -2 10 -4 10 -3 0
-8 -4 -11 -10z"/>
<path d="M7250 2761 c0 -6 4 -13 10 -16 6 -3 7 1 4 9 -7 18 -14 21 -14 7z"/>
<path d="M416 2607 c3 -10 9 -15 12 -12 3 3 0 11 -7 18 -10 9 -11 8 -5 -6z"/>
<path d="M7266 2598 c3 -5 10 -6 15 -3 13 9 11 12 -6 12 -8 0 -12 -4 -9 -9z"/>
<path d="M7250 2561 c0 -6 4 -13 10 -16 6 -3 7 1 4 9 -7 18 -14 21 -14 7z"/>
<path d="M396 2522 c-3 -5 1 -9 9 -9 8 0 12 4 9 9 -3 4 -7 8 -9 8 -2 0 -6 -4
-9 -8z"/>
<path d="M416 2367 c3 -10 9 -15 12 -12 3 3 0 11 -7 18 -10 9 -11 8 -5 -6z"/>
<path d="M7250 2281 c0 -6 4 -13 10 -16 6 -3 7 1 4 9 -7 18 -14 21 -14 7z"/>
<path d="M7255 2209 c-4 -6 -5 -12 -2 -15 2 -3 7 2 10 11 7 17 1 20 -8 4z"/>
<path d="M410 2139 c0 -5 5 -7 10 -4 6 3 10 8 10 11 0 2 -4 4 -10 4 -5 0 -10
-5 -10 -11z"/>
<path d="M416 2047 c3 -10 9 -15 12 -12 3 3 0 11 -7 18 -10 9 -11 8 -5 -6z"/>
<path d="M7250 2001 c0 -6 4 -13 10 -16 6 -3 7 1 4 9 -7 18 -14 21 -14 7z"/>
<path d="M7240 1926 c0 -2 8 -10 18 -17 15 -13 16 -12 3 4 -13 16 -21 21 -21
13z"/>
<path d="M416 1647 c3 -10 9 -15 12 -12 3 3 0 11 -7 18 -10 9 -11 8 -5 -6z"/>
<path d="M7250 1641 c0 -6 4 -13 10 -16 6 -3 7 1 4 9 -7 18 -14 21 -14 7z"/>
<path d="M7255 1569 c-4 -6 -5 -12 -2 -15 2 -3 7 2 10 11 7 17 1 20 -8 4z"/>
<path d="M416 1527 c3 -10 9 -15 12 -12 3 3 0 11 -7 18 -10 9 -11 8 -5 -6z"/>
<path d="M7250 1361 c0 -6 4 -13 10 -16 6 -3 7 1 4 9 -7 18 -14 21 -14 7z"/>
<path d="M416 1313 c-6 -14 -5 -15 5 -6 7 7 10 15 7 18 -3 3 -9 -2 -12 -12z"/>
<path d="M7240 1286 c0 -2 8 -10 18 -17 15 -13 16 -12 3 4 -13 16 -21 21 -21
13z"/>
<path d="M7240 1206 c0 -2 8 -10 18 -17 15 -13 16 -12 3 4 -13 16 -21 21 -21
13z"/>
<path d="M416 1142 c-3 -5 1 -9 9 -9 8 0 12 4 9 9 -3 4 -7 8 -9 8 -2 0 -6 -4
-9 -8z"/>
<path d="M7250 1141 c0 -6 4 -13 10 -16 6 -3 7 1 4 9 -7 18 -14 21 -14 7z"/>
<path d="M7200 1000 c-9 -6 -10 -10 -3 -10 6 0 15 5 18 10 8 12 4 12 -15 0z"/>
<path d="M499 968 c7 -9 9 -23 5 -30 -6 -10 -4 -11 7 0 11 10 10 15 -6 30 -17
15 -18 15 -6 0z"/>
<path d="M473 945 c0 -8 4 -12 9 -9 5 3 6 10 3 15 -9 13 -12 11 -12 -6z"/>
<path d="M7164 942 c-13 -8 -15 -44 -2 -36 5 4 7 9 4 12 -3 3 -1 11 5 19 13
14 10 17 -7 5z"/>
<path d="M525 920 c3 -5 8 -10 11 -10 2 0 4 5 4 10 0 6 -5 10 -11 10 -5 0 -7
-4 -4 -10z"/>
<path d="M570 889 c0 -5 -4 -8 -9 -4 -5 3 -13 0 -17 -7 -4 -7 -4 -10 1 -6 4 4
16 3 25 -2 15 -8 17 -6 13 10 -6 21 -13 27 -13 9z"/>
<path d="M7113 865 c0 -8 4 -12 9 -9 5 3 6 10 3 15 -9 13 -12 11 -12 -6z"/>
<path d="M630 858 c0 -4 4 -8 9 -8 6 0 12 4 15 8 3 5 -1 9 -9 9 -8 0 -15 -4
-15 -9z"/>
<path d="M7015 860 c-3 -5 -1 -10 4 -10 6 0 11 5 11 10 0 6 -2 10 -4 10 -3 0
-8 -4 -11 -10z"/>
<path d="M7075 860 c-16 -7 -17 -9 -3 -9 9 -1 20 4 23 9 7 11 7 11 -20 0z"/>
<path d="M665 850 c-3 -6 1 -7 9 -4 18 7 21 14 7 14 -6 0 -13 -4 -16 -10z"/>
<path d="M6990 851 c0 -7 -4 -10 -8 -7 -4 2 -18 -4 -31 -13 -18 -14 -21 -20
-11 -26 9 -6 11 -4 5 5 -6 10 -4 12 9 7 9 -4 14 -3 11 2 -3 5 -1 12 5 16 5 3
10 0 10 -7 0 -8 5 -6 11 5 6 10 8 21 5 24 -3 4 -6 1 -6 -6z"/>
<path d="M599 833 c-12 -16 -12 -17 2 -6 9 7 20 9 24 5 5 -4 5 -1 1 6 -9 16
-11 15 -27 -5z"/>
<path d="M730 840 c0 -5 5 -10 11 -10 5 0 7 5 4 10 -3 6 -8 10 -11 10 -2 0 -4
-4 -4 -10z"/>
<path d="M3115 822 c2 -15 -2 -34 -9 -42 -9 -13 -9 -13 6 -2 9 8 23 10 30 6 7
-4 5 2 -4 13 -22 24 -24 40 -3 23 8 -7 15 -8 15 -4 0 5 -9 15 -19 21 -17 11
-19 9 -16 -15z"/>
<path d="M4290 832 c6 -13 14 -21 18 -18 3 4 -2 14 -12 24 -18 16 -18 16 -6
-6z"/>
<path d="M5570 832 c6 -13 14 -21 18 -18 3 4 -2 14 -12 24 -18 16 -18 16 -6
-6z"/>
<path d="M6900 840 c0 -6 7 -10 15 -10 8 0 15 2 15 4 0 2 -7 6 -15 10 -8 3
-15 1 -15 -4z"/>
<path d="M7156 833 c-6 -14 -5 -15 5 -6 7 7 10 15 7 18 -3 3 -9 -2 -12 -12z"/>
<path d="M868 833 c6 -2 10 -9 7 -14 -4 -5 1 -6 10 -2 13 5 14 7 3 14 -7 5
-17 8 -23 8 -5 0 -4 -3 3 -6z"/>
<path d="M986 829 c3 -5 10 -7 15 -4 5 4 9 1 9 -4 0 -6 5 -11 12 -11 9 0 9 3
0 12 -14 14 -44 20 -36 7z"/>
<path d="M1120 830 c-9 -6 -10 -10 -3 -10 6 0 15 5 18 10 8 12 4 12 -15 0z"/>
<path d="M1379 823 c-8 -9 -8 -13 0 -13 6 0 11 5 11 11 0 5 4 8 9 4 5 -3 12
-2 15 3 9 14 -23 10 -35 -5z"/>
<path d="M1466 829 c3 -5 10 -7 15 -4 5 4 9 1 9 -4 0 -6 5 -11 12 -11 9 0 9 3
0 12 -14 14 -44 20 -36 7z"/>
<path d="M1699 823 c-8 -9 -8 -13 0 -13 6 0 11 5 11 11 0 5 4 8 9 4 5 -3 12
-2 15 3 9 14 -23 10 -35 -5z"/>
<path d="M1786 829 c3 -5 10 -7 15 -4 5 4 9 1 9 -4 0 -6 5 -11 12 -11 9 0 9 3
0 12 -14 14 -44 20 -36 7z"/>
<path d="M1939 823 c-8 -9 -8 -13 0 -13 6 0 11 5 11 11 0 5 4 8 9 4 5 -3 12
-2 15 3 9 14 -23 10 -35 -5z"/>
<path d="M2028 833 c6 -3 9 -9 6 -15 -4 -6 2 -5 15 1 27 15 27 16 -7 17 -15 1
-21 -1 -14 -3z"/>
<path d="M2099 823 c-8 -9 -8 -13 0 -13 6 0 11 5 11 11 0 5 4 8 9 4 5 -3 12
-2 15 3 9 14 -23 10 -35 -5z"/>
<path d="M2188 833 c6 -2 10 -9 7 -14 -4 -5 1 -6 10 -2 13 5 14 7 3 14 -7 5
-17 8 -23 8 -5 0 -4 -3 3 -6z"/>
<path d="M2232 831 c2 -21 -4 -31 -14 -25 -7 4 -9 3 -5 -2 11 -12 57 -13 57
-1 0 5 -7 7 -15 3 -17 -6 -20 5 -5 20 7 7 6 11 -4 11 -8 0 -15 -3 -14 -6z"/>
<path d="M2586 829 c3 -5 10 -7 15 -4 5 4 9 1 9 -4 0 -6 5 -11 12 -11 9 0 9 3
0 12 -14 14 -44 20 -36 7z"/>
<path d="M2851 823 c6 -7 17 -13 23 -12 7 0 6 2 -2 6 -6 2 -10 8 -8 12 3 4 -1
8 -9 8 -11 0 -12 -4 -4 -14z"/>
<path d="M2899 823 c-8 -9 -8 -13 0 -13 6 0 11 5 11 11 0 5 4 8 9 4 5 -3 12
-2 15 3 9 14 -23 10 -35 -5z"/>
<path d="M2988 833 c6 -3 9 -9 6 -15 -4 -6 2 -5 15 1 27 15 27 16 -7 17 -15 1
-21 -1 -14 -3z"/>
<path d="M3059 823 c-8 -9 -8 -13 0 -13 6 0 11 5 11 11 0 5 4 8 9 4 5 -3 12
-2 15 3 9 14 -23 10 -35 -5z"/>
<path d="M3299 823 c-8 -9 -8 -13 0 -13 6 0 11 5 11 11 0 5 4 8 9 4 5 -3 12
-2 15 3 9 14 -23 10 -35 -5z"/>
<path d="M3386 829 c3 -5 10 -7 15 -4 5 4 9 1 9 -4 0 -6 5 -11 12 -11 9 0 9 3
0 12 -14 14 -44 20 -36 7z"/>
<path d="M3619 823 c-8 -9 -8 -13 0 -13 6 0 11 5 11 11 0 5 4 8 9 4 5 -3 12
-2 15 3 9 14 -23 10 -35 -5z"/>
<path d="M3706 829 c3 -5 10 -7 15 -4 5 4 9 1 9 -4 0 -6 5 -11 12 -11 9 0 9 3
0 12 -14 14 -44 20 -36 7z"/>
<path d="M4188 833 c6 -3 9 -9 6 -15 -4 -6 2 -5 15 1 27 15 27 16 -7 17 -15 1
-21 -1 -14 -3z"/>
<path d="M4260 831 c0 -7 -5 -9 -10 -6 -6 3 -13 -1 -16 -9 -3 -9 -10 -13 -15
-10 -5 3 -9 0 -9 -5 0 -16 20 -13 26 4 4 8 10 13 14 10 10 -6 24 14 16 22 -3
4 -6 1 -6 -6z"/>
<path d="M4455 821 c13 -14 17 -13 33 4 9 11 10 14 3 7 -17 -14 -35 -16 -27
-4 3 5 -2 9 -10 9 -13 0 -13 -2 1 -16z"/>
<path d="M4826 829 c3 -5 10 -7 15 -4 5 4 9 1 9 -4 0 -6 5 -11 12 -11 9 0 9 3
0 12 -14 14 -44 20 -36 7z"/>
<path d="M4960 830 c-9 -6 -10 -10 -3 -10 6 0 15 5 18 10 8 12 4 12 -15 0z"/>
<path d="M5095 821 c13 -14 17 -13 33 4 9 11 10 14 3 7 -17 -14 -35 -16 -27
-4 3 5 -2 9 -10 9 -13 0 -13 -2 1 -16z"/>
<path d="M5468 833 c6 -3 9 -9 6 -15 -4 -6 2 -5 15 1 27 15 27 16 -7 17 -15 1
-21 -1 -14 -3z"/>
<path d="M5540 831 c0 -7 -5 -9 -10 -6 -6 3 -13 -1 -16 -9 -3 -9 -10 -13 -15
-10 -5 3 -9 0 -9 -5 0 -16 20 -13 26 4 4 8 10 13 14 10 10 -6 24 14 16 22 -3
4 -6 1 -6 -6z"/>
<path d="M5735 821 c13 -14 17 -13 33 4 9 11 10 14 3 7 -17 -14 -35 -16 -27
-4 3 5 -2 9 -10 9 -13 0 -13 -2 1 -16z"/>
<path d="M6106 829 c3 -5 10 -7 15 -4 5 4 9 1 9 -4 0 -6 5 -11 12 -11 9 0 9 3
0 12 -14 14 -44 20 -36 7z"/>
<path d="M6240 830 c-9 -6 -10 -10 -3 -10 6 0 15 5 18 10 8 12 4 12 -15 0z"/>
<path d="M6499 823 c-8 -9 -8 -13 0 -13 6 0 11 5 11 11 0 5 4 8 9 4 5 -3 12
-2 15 3 9 14 -23 10 -35 -5z"/>
<path d="M6586 829 c3 -5 10 -7 15 -4 5 4 9 1 9 -4 0 -6 5 -11 12 -11 9 0 9 3
0 12 -14 14 -44 20 -36 7z"/>
<path d="M6788 833 c6 -2 10 -9 7 -14 -4 -5 1 -6 10 -2 13 5 14 7 3 14 -7 5
-17 8 -23 8 -5 0 -4 -3 3 -6z"/>
<path d="M6833 820 c-1 -11 2 -22 8 -25 5 -4 6 2 2 11 -5 13 -3 15 8 9 12 -8
12 -6 0 8 -17 21 -16 21 -18 -3z"/>
<path d="M7037 829 c7 -7 15 -10 18 -7 3 3 -2 9 -12 12 -14 6 -15 5 -6 -5z"/>
<path d="M956 813 c-6 -14 -5 -15 5 -6 7 7 10 15 7 18 -3 3 -9 -2 -12 -12z"/>
<path d="M1430 820 c0 -5 5 -10 10 -10 6 0 10 5 10 10 0 6 -4 10 -10 10 -5 0
-10 -4 -10 -10z"/>
<path d="M1550 819 c0 -5 5 -7 10 -4 6 3 10 -1 10 -9 0 -9 5 -16 10 -16 7 0 7
6 0 20 -11 21 -30 27 -30 9z"/>
<path d="M1750 820 c0 -5 5 -10 10 -10 6 0 10 5 10 10 0 6 -4 10 -10 10 -5 0
-10 -4 -10 -10z"/>
<path d="M1870 819 c0 -5 5 -7 10 -4 6 3 10 -1 10 -9 0 -9 5 -16 10 -16 7 0 7
6 0 20 -11 21 -30 27 -30 9z"/>
<path d="M2430 820 c0 -6 4 -9 9 -6 5 4 12 1 14 -4 3 -6 4 -5 3 2 -3 15 -26
23 -26 8z"/>
<path d="M2670 819 c0 -5 5 -7 12 -3 8 5 9 1 4 -12 -5 -14 -4 -16 5 -7 6 6 8
16 5 22 -9 14 -26 14 -26 0z"/>
<path d="M3350 820 c0 -5 5 -10 10 -10 6 0 10 5 10 10 0 6 -4 10 -10 10 -5 0
-10 -4 -10 -10z"/>
<path d="M3470 819 c0 -5 5 -7 10 -4 6 3 10 -1 10 -9 0 -9 5 -16 10 -16 7 0 7
6 0 20 -11 21 -30 27 -30 9z"/>
<path d="M3670 820 c0 -5 5 -10 10 -10 6 0 10 5 10 10 0 6 -4 10 -10 10 -5 0
-10 -4 -10 -10z"/>
<path d="M3790 819 c0 -5 5 -7 10 -4 6 3 10 -1 10 -9 0 -9 5 -16 10 -16 7 0 7
6 0 20 -11 21 -30 27 -30 9z"/>
<path d="M4030 820 c0 -6 4 -9 9 -6 5 4 12 1 14 -4 3 -6 4 -5 3 2 -3 15 -26
23 -26 8z"/>
<path d="M4670 820 c0 -6 4 -9 9 -6 5 4 12 1 14 -4 3 -6 4 -5 3 2 -3 15 -26
23 -26 8z"/>
<path d="M5310 820 c0 -6 4 -9 9 -6 5 4 12 1 14 -4 3 -6 4 -5 3 2 -3 15 -26
23 -26 8z"/>
<path d="M5950 820 c0 -6 4 -9 9 -6 5 4 12 1 14 -4 3 -6 4 -5 3 2 -3 15 -26
23 -26 8z"/>
<path d="M6550 820 c0 -5 5 -10 10 -10 6 0 10 5 10 10 0 6 -4 10 -10 10 -5 0
-10 -4 -10 -10z"/>
<path d="M6670 819 c0 -5 5 -7 10 -4 6 3 10 -1 10 -9 0 -9 5 -16 10 -16 7 0 7
6 0 20 -11 21 -30 27 -30 9z"/>
<path d="M7074 822 c4 -3 14 -7 22 -8 9 -1 13 0 10 4 -4 3 -14 7 -22 8 -9 1
-13 0 -10 -4z"/>
<path d="M677 813 c-10 -10 -8 -23 4 -23 5 0 8 4 5 9 -4 5 0 12 6 14 7 3 8 6
2 6 -6 1 -14 -2 -17 -6z"/>
<path d="M852 800 c0 -14 2 -19 5 -12 2 6 2 18 0 25 -3 6 -5 1 -5 -13z"/>
<path d="M2010 805 c0 -8 4 -15 10 -15 5 0 7 7 4 15 -4 8 -8 15 -10 15 -2 0
-4 -7 -4 -15z"/>
<path d="M2071 804 c0 -11 3 -14 6 -6 3 7 2 16 -1 19 -3 4 -6 -2 -5 -13z"/>
<path d="M2970 805 c0 -8 4 -15 10 -15 5 0 7 7 4 15 -4 8 -8 15 -10 15 -2 0
-4 -7 -4 -15z"/>
<path d="M3032 796 c1 -15 9 -33 17 -39 12 -10 13 -9 6 3 -5 8 -11 24 -12 34
-5 31 -13 32 -11 2z"/>
<path d="M3161 804 c0 -11 3 -14 6 -6 3 7 2 16 -1 19 -3 4 -6 -2 -5 -13z"/>
<path d="M4166 803 c-6 -14 -5 -15 5 -6 7 7 10 15 7 18 -3 3 -9 -2 -12 -12z"/>
<path d="M5446 803 c-6 -14 -5 -15 5 -6 7 7 10 15 7 18 -3 3 -9 -2 -12 -12z"/>
<path d="M6770 806 c0 -8 4 -17 9 -20 5 -4 7 3 4 14 -6 23 -13 26 -13 6z"/>
<path d="M6890 805 c0 -8 4 -15 10 -15 5 0 7 7 4 15 -4 8 -8 15 -10 15 -2 0
-4 -7 -4 -15z"/>
<path d="M630 801 c0 -6 4 -13 10 -16 6 -3 7 1 4 9 -7 18 -14 21 -14 7z"/>
<path d="M790 800 c0 -5 5 -10 11 -10 5 0 7 5 4 10 -3 6 -8 10 -11 10 -2 0 -4
-4 -4 -10z"/>
<path d="M975 799 c-4 -6 -4 -13 -1 -16 3 -4 6 0 6 7 0 9 7 7 21 -6 22 -19 22
-19 8 4 -15 24 -24 27 -34 11z"/>
<path d="M1035 799 c-4 -6 -4 -13 -1 -16 3 -4 6 -1 6 6 0 7 5 9 10 6 6 -3 10
-1 10 4 0 14 -17 14 -25 0z"/>
<path d="M1100 805 c0 -8 29 -12 39 -5 9 5 4 8 -13 8 -14 0 -26 -2 -26 -3z"/>
<path d="M1230 802 c0 -5 7 -9 15 -9 8 0 12 4 9 9 -3 4 -9 8 -15 8 -5 0 -9 -4
-9 -8z"/>
<path d="M1335 801 c-3 -5 0 -13 6 -17 7 -4 9 -3 5 4 -3 5 0 13 6 15 9 4 10 6
1 6 -6 1 -14 -3 -18 -8z"/>
<path d="M1408 803 c6 -2 9 -10 6 -15 -4 -7 -2 -8 5 -4 13 9 5 26 -12 25 -9 0
-8 -2 1 -6z"/>
<path d="M1456 794 c-5 -14 -4 -15 9 -4 17 14 19 20 6 20 -5 0 -12 -7 -15 -16z"/>
<path d="M1515 800 c-3 -5 -2 -10 4 -10 5 0 13 5 16 10 3 6 2 10 -4 10 -5 0
-13 -4 -16 -10z"/>
<path d="M1655 801 c-3 -5 0 -13 6 -17 7 -4 9 -3 5 4 -3 5 0 13 6 15 9 4 10 6
1 6 -6 1 -14 -3 -18 -8z"/>
<path d="M1728 803 c6 -2 9 -10 6 -15 -4 -7 -2 -8 5 -4 13 9 5 26 -12 25 -9 0
-8 -2 1 -6z"/>
<path d="M1776 794 c-5 -14 -4 -15 9 -4 17 14 19 20 6 20 -5 0 -12 -7 -15 -16z"/>
<path d="M1835 800 c-3 -5 -2 -10 4 -10 5 0 13 5 16 10 3 6 2 10 -4 10 -5 0
-13 -4 -16 -10z"/>
<path d="M1960 799 c0 -5 5 -7 10 -4 6 3 10 8 10 11 0 2 -4 4 -10 4 -5 0 -10
-5 -10 -11z"/>
<path d="M2115 800 c-3 -6 1 -7 9 -4 18 7 21 14 7 14 -6 0 -13 -4 -16 -10z"/>
<path d="M2350 802 c0 -5 7 -9 15 -9 8 0 12 4 9 9 -3 4 -9 8 -15 8 -5 0 -9 -4
-9 -8z"/>
<path d="M2580 800 c0 -6 4 -9 9 -6 5 4 12 1 14 -4 3 -6 4 -5 3 2 -3 15 -26
23 -26 8z"/>
<path d="M2631 788 c-13 -21 -13 -22 2 -10 9 8 21 11 26 7 7 -3 8 0 5 9 -8 22
-17 20 -33 -6z"/>
<path d="M2826 802 c-3 -5 1 -9 9 -9 8 0 15 4 15 9 0 4 -4 8 -9 8 -6 0 -12 -4
-15 -8z"/>
<path d="M2920 799 c0 -5 5 -7 10 -4 6 3 10 8 10 11 0 2 -4 4 -10 4 -5 0 -10
-5 -10 -11z"/>
<path d="M3080 795 c0 -8 2 -15 4 -15 2 0 6 7 10 15 3 8 1 15 -4 15 -6 0 -10
-7 -10 -15z"/>
<path d="M3255 801 c-3 -5 0 -13 6 -17 7 -4 9 -3 5 4 -3 5 0 13 6 15 9 4 10 6
1 6 -6 1 -14 -3 -18 -8z"/>
<path d="M3328 803 c6 -2 9 -10 6 -15 -4 -7 -2 -8 5 -4 13 9 5 26 -12 25 -9 0
-8 -2 1 -6z"/>
<path d="M3376 794 c-5 -14 -4 -15 9 -4 17 14 19 20 6 20 -5 0 -12 -7 -15 -16z"/>
<path d="M3435 800 c-3 -5 -2 -10 4 -10 5 0 13 5 16 10 3 6 2 10 -4 10 -5 0
-13 -4 -16 -10z"/>
<path d="M3575 801 c-3 -5 0 -13 6 -17 7 -4 9 -3 5 4 -3 5 0 13 6 15 9 4 10 6
1 6 -6 1 -14 -3 -18 -8z"/>
<path d="M3648 803 c6 -2 9 -10 6 -15 -4 -7 -2 -8 5 -4 13 9 5 26 -12 25 -9 0
-8 -2 1 -6z"/>
<path d="M3696 794 c-5 -14 -4 -15 9 -4 17 14 19 20 6 20 -5 0 -12 -7 -15 -16z"/>
<path d="M3755 800 c-3 -5 -2 -10 4 -10 5 0 13 5 16 10 3 6 2 10 -4 10 -5 0
-13 -4 -16 -10z"/>
<path d="M3846 802 c-3 -5 1 -9 9 -9 8 0 15 4 15 9 0 4 -4 8 -9 8 -6 0 -12 -4
-15 -8z"/>
<path d="M3950 802 c0 -5 7 -9 15 -9 8 0 12 4 9 9 -3 4 -9 8 -15 8 -5 0 -9 -4
-9 -8z"/>
<path d="M4270 800 c0 -6 4 -9 9 -6 5 4 12 1 14 -4 3 -6 4 -5 3 2 -3 15 -26
23 -26 8z"/>
<path d="M4330 802 c0 -5 7 -9 15 -9 8 0 12 4 9 9 -3 4 -9 8 -15 8 -5 0 -9 -4
-9 -8z"/>
<path d="M4479 793 c-12 -16 -12 -17 2 -6 9 7 19 10 22 6 4 -3 7 -1 7 5 0 17
-16 15 -31 -5z"/>
<path d="M4590 802 c0 -5 7 -9 15 -9 8 0 12 4 9 9 -3 4 -9 8 -15 8 -5 0 -9 -4
-9 -8z"/>
<path d="M4815 799 c-4 -6 -4 -13 -1 -16 3 -4 6 0 6 7 0 9 7 7 21 -6 22 -19
22 -19 8 4 -15 24 -24 27 -34 11z"/>
<path d="M4876 802 c-3 -5 1 -9 9 -9 8 0 15 4 15 9 0 4 -4 8 -9 8 -6 0 -12 -4
-15 -8z"/>
<path d="M4940 805 c0 -8 29 -12 39 -5 9 5 4 8 -13 8 -14 0 -26 -2 -26 -3z"/>
<path d="M5070 802 c0 -5 7 -9 15 -9 8 0 12 4 9 9 -3 4 -9 8 -15 8 -5 0 -9 -4
-9 -8z"/>
<path d="M5120 800 c-12 -7 -10 -9 8 -7 12 0 22 5 22 9 0 11 -12 10 -30 -2z"/>
<path d="M5230 802 c0 -5 7 -9 15 -9 8 0 12 4 9 9 -3 4 -9 8 -15 8 -5 0 -9 -4
-9 -8z"/>
<path d="M5550 800 c0 -6 4 -9 9 -6 5 4 12 1 14 -4 3 -6 4 -5 3 2 -3 15 -26
23 -26 8z"/>
<path d="M5610 802 c0 -5 7 -9 15 -9 8 0 12 4 9 9 -3 4 -9 8 -15 8 -5 0 -9 -4
-9 -8z"/>
<path d="M5759 793 c-12 -16 -12 -17 2 -6 9 7 19 10 22 6 4 -3 7 -1 7 5 0 17
-16 15 -31 -5z"/>
<path d="M5870 802 c0 -5 7 -9 15 -9 8 0 12 4 9 9 -3 4 -9 8 -15 8 -5 0 -9 -4
-9 -8z"/>
<path d="M6095 799 c-4 -6 -4 -13 -1 -16 3 -4 6 0 6 7 0 9 7 7 21 -6 22 -19
22 -19 8 4 -15 24 -24 27 -34 11z"/>
<path d="M6156 802 c-3 -5 1 -9 9 -9 8 0 15 4 15 9 0 4 -4 8 -9 8 -6 0 -12 -4
-15 -8z"/>
<path d="M6220 805 c0 -8 29 -12 39 -5 9 5 4 8 -13 8 -14 0 -26 -2 -26 -3z"/>
<path d="M6350 802 c0 -5 7 -9 15 -9 8 0 12 4 9 9 -3 4 -9 8 -15 8 -5 0 -9 -4
-9 -8z"/>
<path d="M6455 801 c-3 -5 0 -13 6 -17 7 -4 9 -3 5 4 -3 5 0 13 6 15 9 4 10 6
1 6 -6 1 -14 -3 -18 -8z"/>
<path d="M6528 803 c6 -2 9 -10 6 -15 -4 -7 -2 -8 5 -4 13 9 5 26 -12 25 -9 0
-8 -2 1 -6z"/>
<path d="M6576 794 c-5 -14 -4 -15 9 -4 17 14 19 20 6 20 -5 0 -12 -7 -15 -16z"/>
<path d="M6635 800 c-3 -5 -2 -10 4 -10 5 0 13 5 16 10 3 6 2 10 -4 10 -5 0
-13 -4 -16 -10z"/>
<path d="M7033 795 c0 -8 4 -12 9 -9 5 3 6 10 3 15 -9 13 -12 11 -12 -6z"/>
<path d="M870 796 c0 -2 8 -10 18 -17 15 -13 16 -12 3 4 -13 16 -21 21 -21 13z"/>
<path d="M2790 790 c-9 -6 -10 -10 -3 -10 6 0 15 5 18 10 8 12 4 12 -15 0z"/>
<path d="M1100 786 c0 -2 8 -10 18 -17 15 -13 16 -12 3 4 -13 16 -21 21 -21
13z"/>
<path d="M1140 786 c0 -2 8 -10 18 -17 15 -13 16 -12 3 4 -13 16 -21 21 -21
13z"/>
<path d="M1480 780 c-9 -6 -10 -10 -3 -10 6 0 15 5 18 10 8 12 4 12 -15 0z"/>
<path d="M1800 780 c-9 -6 -10 -10 -3 -10 6 0 15 5 18 10 8 12 4 12 -15 0z"/>
<path d="M1980 780 c-9 -6 -10 -10 -3 -10 6 0 15 5 18 10 8 12 4 12 -15 0z"/>
<path d="M2039 773 c-13 -16 -12 -17 4 -4 16 13 21 21 13 21 -2 0 -10 -8 -17
-17z"/>
<path d="M2467 779 c7 -7 15 -10 18 -7 3 3 -2 9 -12 12 -14 6 -15 5 -6 -5z"/>
<path d="M2706 778 c3 -5 10 -6 15 -3 13 9 11 12 -6 12 -8 0 -12 -4 -9 -9z"/>
<path d="M2748 783 c7 -3 16 -2 19 1 4 3 -2 6 -13 5 -11 0 -14 -3 -6 -6z"/>
<path d="M2940 780 c-9 -6 -10 -10 -3 -10 6 0 15 5 18 10 8 12 4 12 -15 0z"/>
<path d="M2999 773 c-13 -16 -12 -17 4 -4 16 13 21 21 13 21 -2 0 -10 -8 -17
-17z"/>
<path d="M3186 782 c-2 -4 4 -8 14 -8 10 0 16 4 14 8 -3 4 -9 8 -14 8 -5 0
-11 -4 -14 -8z"/>
<path d="M3400 780 c-9 -6 -10 -10 -3 -10 6 0 15 5 18 10 8 12 4 12 -15 0z"/>
<path d="M3720 780 c-9 -6 -10 -10 -3 -10 6 0 15 5 18 10 8 12 4 12 -15 0z"/>
<path d="M4067 779 c7 -7 15 -10 18 -7 3 3 -2 9 -12 12 -14 6 -15 5 -6 -5z"/>
<path d="M4180 780 c-9 -6 -10 -10 -3 -10 6 0 15 5 18 10 8 12 4 12 -15 0z"/>
<path d="M4236 773 c-6 -14 -5 -15 5 -6 7 7 10 15 7 18 -3 3 -9 -2 -12 -12z"/>
<path d="M4433 773 c0 -9 4 -10 14 -2 7 6 13 12 13 14 0 1 -6 2 -13 2 -8 0
-14 -6 -14 -14z"/>
<path d="M4707 779 c7 -7 15 -10 18 -7 3 3 -2 9 -12 12 -14 6 -15 5 -6 -5z"/>
<path d="M4940 786 c0 -2 8 -10 18 -17 15 -13 16 -12 3 4 -13 16 -21 21 -21
13z"/>
<path d="M4980 786 c0 -2 8 -10 18 -17 15 -13 16 -12 3 4 -13 16 -21 21 -21
13z"/>
<path d="M5347 779 c7 -7 15 -10 18 -7 3 3 -2 9 -12 12 -14 6 -15 5 -6 -5z"/>
<path d="M5460 780 c-9 -6 -10 -10 -3 -10 6 0 15 5 18 10 8 12 4 12 -15 0z"/>
<path d="M5516 773 c-6 -14 -5 -15 5 -6 7 7 10 15 7 18 -3 3 -9 -2 -12 -12z"/>
<path d="M5713 773 c0 -9 4 -10 14 -2 7 6 13 12 13 14 0 1 -6 2 -13 2 -8 0
-14 -6 -14 -14z"/>
<path d="M5987 779 c7 -7 15 -10 18 -7 3 3 -2 9 -12 12 -14 6 -15 5 -6 -5z"/>
<path d="M6220 786 c0 -2 8 -10 18 -17 15 -13 16 -12 3 4 -13 16 -21 21 -21
13z"/>
<path d="M6260 786 c0 -2 8 -10 18 -17 15 -13 16 -12 3 4 -13 16 -21 21 -21
13z"/>
<path d="M6600 780 c-9 -6 -10 -10 -3 -10 6 0 15 5 18 10 8 12 4 12 -15 0z"/>
<path d="M6827 779 c7 -7 15 -10 18 -7 3 3 -2 9 -12 12 -14 6 -15 5 -6 -5z"/>
<path d="M1509 763 c-13 -16 -12 -17 4 -4 16 13 21 21 13 21 -2 0 -10 -8 -17
-17z"/>
<path d="M1829 763 c-13 -16 -12 -17 4 -4 16 13 21 21 13 21 -2 0 -10 -8 -17
-17z"/>
<path d="M3429 763 c-13 -16 -12 -17 4 -4 9 7 17 15 17 17 0 8 -8 3 -21 -13z"/>
<path d="M3749 763 c-13 -16 -12 -17 4 -4 16 13 21 21 13 21 -2 0 -10 -8 -17
-17z"/>
<path d="M6629 763 c-13 -16 -12 -17 4 -4 9 7 17 15 17 17 0 8 -8 3 -21 -13z"/>
<path d="M666 762 c-3 -5 1 -9 9 -9 8 0 12 4 9 9 -3 4 -7 8 -9 8 -2 0 -6 -4
-9 -8z"/>
<path d="M950 756 c7 -7 13 -7 20 0 6 6 3 10 -10 10 -13 0 -16 -4 -10 -10z"/>
<path d="M2107 759 c7 -7 15 -10 18 -7 3 3 -2 9 -12 12 -14 6 -15 5 -6 -5z"/>
<path d="M2753 755 c0 -8 4 -12 9 -9 5 3 6 10 3 15 -9 13 -12 11 -12 -6z"/>
<path d="M6784 762 c4 -3 14 -7 22 -8 9 -1 13 0 10 4 -4 3 -14 7 -22 8 -9 1
-13 0 -10 -4z"/>
<path d="M6864 762 c4 -3 14 -7 22 -8 9 -1 13 0 10 4 -4 3 -14 7 -22 8 -9 1
-13 0 -10 -4z"/>
<path d="M2496 742 c-2 -4 -1 -14 4 -22 7 -11 9 -9 7 8 -1 24 -3 26 -11 14z"/>
<path d="M4096 742 c-2 -4 -1 -14 4 -22 7 -11 9 -9 7 8 -1 24 -3 26 -11 14z"/>
<path d="M4736 742 c-2 -4 -1 -14 4 -22 7 -11 9 -9 7 8 -1 24 -3 26 -11 14z"/>
<path d="M5376 742 c-2 -4 -1 -14 4 -22 7 -11 9 -9 7 8 -1 24 -3 26 -11 14z"/>
<path d="M6016 742 c-2 -4 -1 -14 4 -22 7 -11 9 -9 7 8 -1 24 -3 26 -11 14z"/>
<path d="M1039 713 c-13 -16 -12 -17 4 -4 16 13 21 21 13 21 -2 0 -10 -8 -17
-17z"/>
<path d="M4879 713 c-13 -16 -12 -17 4 -4 9 7 17 15 17 17 0 8 -8 3 -21 -13z"/>
<path d="M6159 713 c-13 -16 -12 -17 4 -4 9 7 17 15 17 17 0 8 -8 3 -21 -13z"/>
</g>
</svg>
